# xmcd CD database file
#
# Track frame offsets:
#	150
#	16097
#	28664
#	40278
#	51435
#	68445
#	81476
#	99791
#	110736
#	121056
#	136996
#	152307
#	163709
#	176967
#
# Disc length: 2569 seconds
#
# Revision: 0
# Processed by: cddbd v1.4PL0 Copyright (c) Steve Scherf et al.
# Submitted via: CDex 1.50beta10
#
DISCID=ae0a070e
DTITLE=Clarence Carter - Starting All Over Again
DYEAR=2001
DGENRE=Blues
TTITLE0=Lovely Day
TTITLE1=Starting All Over Again
TTITLE2=Slip Away
TTITLE3=Got a Thing About You Baby
TTITLE4=Brickhouse
TTITLE5=Back Stabbers
TTITLE6=I'm Easy
TTITLE7=Woman Don't Go Astray
TTITLE8=Too Weak to Fight
TTITLE9=Drift Away
TTITLE10=Patches
TTITLE11=You Talk Too Much
TTITLE12=Everybody Plays the Fool
TTITLE13=You Don't Have to Say You Love Me
EXTD=YEAR: 2001
EXTT0=
EXTT1=
EXTT2=
EXTT3=
EXTT4=
EXTT5=
EXTT6=
EXTT7=
EXTT8=
EXTT9=
EXTT10=
EXTT11=
EXTT12=
EXTT13=
PLAYORDER=
